<?xml version="1.0" standalone="no"?><!DOCTYPE svg PUBLIC "-//W3C//DTD SVG 1.1//EN" "http://www.w3.org/Graphics/SVG/1.1/DTD/svg11.dtd"><svg t="1751189126299" class="icon" viewBox="0 0 1024 1024" version="1.1" xmlns="http://www.w3.org/2000/svg" p-id="6872" xmlns:xlink="http://www.w3.org/1999/xlink" width="200" height="200"><path d="M172.4416 322.56a379.6992 379.6992 0 0 1 30.2592-46.08A528.7424 528.7424 0 0 0 302.08 314.9312c-0.6656 2.5088-1.2288 5.12-1.8432 7.6288h423.424c-0.6144-2.5088-1.1776-5.12-1.8432-7.6288A528.7424 528.7424 0 0 0 821.2992 276.48a379.6992 379.6992 0 0 1 30.2592 46.08h58.1632a440.8832 440.8832 0 0 0-795.4432 0z m613.6832-86.1696a494.7968 494.7968 0 0 1-79.2576 29.2864 508.2624 508.2624 0 0 0-24.6272-58.368 362.5984 362.5984 0 0 0-38.2976-61.44 388.5568 388.5568 0 0 1 142.1824 90.5216zM537.6 127.5904c35.84 11.8272 70.7072 47.872 98.304 102.8608a449.3312 449.3312 0 0 1 20.48 47.104 755.2 755.2 0 0 1-118.784 13.0048z m-51.2 0v162.9696a755.2 755.2 0 0 1-118.528-13.0048 449.3312 449.3312 0 0 1 20.48-47.104C415.488 175.4624 450.56 139.4176 486.4 127.5904z m-106.3424 18.5344a362.5984 362.5984 0 0 0-38.2976 61.44 508.2624 508.2624 0 0 0-24.6272 58.368 494.7968 494.7968 0 0 1-79.2576-29.2864 388.5568 388.5568 0 0 1 142.1824-90.5216zM851.5584 701.44a379.6992 379.6992 0 0 1-30.2592 46.08 528.7424 528.7424 0 0 0-99.3792-38.4512c0.6656-2.5088 1.2288-5.12 1.8432-7.6288H300.288c0.6144 2.5088 1.1776 5.12 1.8432 7.6288A528.7424 528.7424 0 0 0 202.7008 747.52a379.6992 379.6992 0 0 1-30.2592-46.08H114.2784a440.8832 440.8832 0 0 0 795.4432 0zM237.8752 787.6096a494.7968 494.7968 0 0 1 79.2576-29.2864 508.2624 508.2624 0 0 0 24.6272 58.368 362.5984 362.5984 0 0 0 38.2976 61.44 388.5568 388.5568 0 0 1-142.1824-90.5216zM486.4 896.4096c-35.84-11.8272-70.7072-47.872-98.304-102.8608a449.3312 449.3312 0 0 1-20.48-47.104 755.2 755.2 0 0 1 118.784-13.0048z m51.6096 0v-162.9696a755.2 755.2 0 0 1 118.528 13.0048 449.3312 449.3312 0 0 1-20.48 47.104c-27.5456 54.9888-62.3616 91.0336-98.4576 102.8608z m106.1376-18.5344a362.5984 362.5984 0 0 0 38.2976-61.44 508.2624 508.2624 0 0 0 24.6272-58.368 494.7968 494.7968 0 0 1 79.2576 29.2864 388.5568 388.5568 0 0 1-142.3872 90.5216z" fill="#474D4F" p-id="6873"></path><path d="M71.68 366.08m40.96 0l798.72 0q40.96 0 40.96 40.96l0 209.92q0 40.96-40.96 40.96l-798.72 0q-40.96 0-40.96-40.96l0-209.92q0-40.96 40.96-40.96Z" fill="#26999E" p-id="6874"></path><path d="M360.4992 510.3104a118.784 118.784 0 0 1-14.2336 59.3408 94.5152 94.5152 0 0 1-40.96 38.5024 135.0656 135.0656 0 0 1-61.44 13.3632H161.3312a7.8336 7.8336 0 0 1-7.7312-7.936V410.5728a7.8336 7.8336 0 0 1 7.7312-7.936h74.496Q296.96 402.6368 328.6016 430.08t31.8976 80.2304z m-42.5984 0q0-77.7216-82.944-77.7216h-31.5392a7.8848 7.8848 0 0 0-7.7312 7.9872V583.68a7.8848 7.8848 0 0 0 7.7312 7.9872H240.64q36.608 0 57.088-21.2992t20.1728-60.0576zM585.0112 619.52L469.248 459.008a5.12 5.12 0 0 0-9.728 3.3792v1.8432q0.4608 9.8304 0.4608 19.968v131.9936a5.12 5.12 0 0 1-5.12 5.12h-28.9792a5.4272 5.4272 0 0 1-5.4272-5.12V407.9616a5.4272 5.4272 0 0 1 5.4272-5.12h43.9808a5.12 5.12 0 0 1 4.352 2.2016l116.8384 161.1264a5.4272 5.4272 0 0 0 9.7792-3.4304c-0.3584-6.8096-0.512-14.9504-0.512-24.3712V407.9616a5.12 5.12 0 0 1 5.376-5.12h29.184a5.12 5.12 0 0 1 5.12 5.12v208.2304a5.12 5.12 0 0 1-5.12 5.12h-45.2608a5.12 5.12 0 0 1-4.608-1.792zM870.4 559.872a55.7056 55.7056 0 0 1-23.0912 48.0768Q824.32 624.64 780.4928 624.64q-38.4512 0-60.4672-14.4384a64.8192 64.8192 0 0 1-25.6-33.792 8.4992 8.4992 0 0 1 6.656-11.3152l23.9616-3.5328a8.3968 8.3968 0 0 1 9.1648 5.4272c7.2192 19.4048 23.5008 29.0816 48.6912 29.0816q45.6704 0 45.6704-34.048a26.4704 26.4704 0 0 0-4.5056-15.9744 35.3792 35.3792 0 0 0-12.3904-10.24 92.7744 92.7744 0 0 0-18.5856-7.0656l-22.9376-5.9904a166.0928 166.0928 0 0 1-42.7008-15.36 53.0432 53.0432 0 0 1-27.392-49.7152 50.0736 50.0736 0 0 1 20.9408-42.9568q21.1968-15.36 58.9824-15.36 35.84 0 56.32 12.3392a60.8768 60.8768 0 0 1 24.4224 28.928 8.3456 8.3456 0 0 1-6.5536 11.4176l-24.064 3.7376a8.6016 8.6016 0 0 1-9.1648-5.12q-9.9328-23.6544-40.96-23.6544a44.3392 44.3392 0 0 0-27.9552 7.68 25.6 25.6 0 0 0-9.8304 21.4016 26.3168 26.3168 0 0 0 4.4032 15.36 36.6592 36.6592 0 0 0 13.2096 10.5984 197.6832 197.6832 0 0 0 33.792 11.3152 279.552 279.552 0 0 1 42.0864 13.8752 72.3968 72.3968 0 0 1 19.968 13.312 48.7424 48.7424 0 0 1 11.1104 16.9472 61.1328 61.1328 0 0 1 3.6352 22.3744z" fill="#FFFFFF" p-id="6875"></path></svg>