<?xml version="1.0" standalone="no"?><!DOCTYPE svg PUBLIC "-//W3C//DTD SVG 1.1//EN" "http://www.w3.org/Graphics/SVG/1.1/DTD/svg11.dtd"><svg t="1750350159879" class="icon" viewBox="0 0 1024 1024" version="1.1" xmlns="http://www.w3.org/2000/svg" p-id="4766" xmlns:xlink="http://www.w3.org/1999/xlink" width="200" height="200"><path d="M512 0c282.768 0 512 229.232 512 512 0 282.768-229.232 512-512 512C229.232 1024 0 794.768 0 512 0 229.232 229.232 0 512 0zM261.92 352c-48.256 0-72.368 29.44-72.368 88.288v43.456H148.4v-43.456h12.72l-33.36-47.2-33.904 47.2h12.576V504c0.288 12.688 7.392 19.024 21.328 19.024h61.792v68.256C191.584 634.432 215.68 656 261.904 656c46.208 0 70.784-21.568 73.728-64.72v-107.536h-77.92v40.8h32.144v59.904c-2.64 17.52-11.952 26.288-27.952 26.288s-25.376-8.768-28.112-26.288V423.744c2.336-18.688 11.696-28.032 28.112-28.032 16.416 0 25.728 9.344 27.952 28.032v16.544h45.776C334.72 381.44 310.144 352 261.92 352z m522.816 0c-46.336 0-69.808 27.68-70.4 83.072v156.896c8.16 42.688 31.632 64.032 70.4 64.032 38.784 0 62.384-21.344 70.816-64.032v-25.344h-44.224v19.904c-4.192 16.512-13.056 24.768-26.592 24.768s-21.92-8.256-25.184-24.768V425.52c-0.672-19.552 7.792-29.312 25.392-29.312s26.4 14.464 26.4 43.424h44.208c0.384-58.416-23.2-87.632-70.816-87.632z m-332.672 3.104h-81.6v296.944h44.064V524.16h23.024l40.96 127.888h48.272l-48.288-134.352c25.12-16.352 37.696-41.328 37.696-74.944 0-50.416-26.592-87.648-64.128-87.648z m169.856 0h-72.784v296.944h43.04v-127.2h23.52c50.192-1.856 74.176-28.8 71.904-80.848-3.408-78.08-28.256-85.776-65.68-88.896z m300.992 127.936h-111.52v40.048h93.84v41.904h-13.088l34.24 49.168 35.936-49.168h-15.408V504c-2.112-13.968-10.128-20.96-24-20.96z m-478.848-86.832c15.728 0 24.656 9.872 26.768 29.632v28.8c0 15.952-8.912 25.424-26.768 28.4H415.04v-86.832z m180.576 0c10.944 0 18.368 9.52 22.256 28.56v23.568c0 20.928-9.488 32.496-28.464 34.72h-26.032v-86.848z" fill="#2CA6B0" p-id="4767"></path></svg>