<?xml version="1.0" standalone="no"?><!DOCTYPE svg PUBLIC "-//W3C//DTD SVG 1.1//EN" "http://www.w3.org/Graphics/SVG/1.1/DTD/svg11.dtd"><svg t="1751389440773" class="icon" viewBox="0 0 1024 1024" version="1.1" xmlns="http://www.w3.org/2000/svg" p-id="7339" xmlns:xlink="http://www.w3.org/1999/xlink" width="200" height="200"><path d="M291.48 244.5c-27.61 0-50 22.39-50 50v585h585c27.61 0 50-22.39 50-50v-585h-585z" fill="#E9F1FF" p-id="7340"></path><path d="M828.99 904.5h-635c-41.36 0-75-33.65-75-75v-635c0-41.35 33.64-75 75-75h635c41.35 0 75 33.65 75 75v635c0 41.35-33.65 75-75 75z m-635-735c-13.79 0-25 11.21-25 25v635c0 13.79 11.21 25 25 25h635c13.79 0 25-11.21 25-25v-635c0-13.79-11.21-25-25-25h-635z" fill="#2C5CCB" p-id="7341"></path><path d="M711.14 753h-399.3c-41.36 0-75-33.65-75-75V511.91c0-41.35 33.64-75 75-75h16.57V346c0-41.35 33.64-75 75-75h216.17c41.36 0 75 33.65 75 75v90.91h16.57c41.36 0 75 33.65 75 75V678c-0.01 41.35-33.65 75-75.01 75z m-399.3-266.09c-13.79 0-25 11.21-25 25V678c0 13.79 11.21 25 25 25h399.3c13.79 0 25-11.21 25-25V511.91c0-13.79-11.21-25-25-25h-41.57c-13.81 0-25-11.19-25-25V346c0-13.79-11.21-25-25-25H403.4c-13.79 0-25 11.21-25 25v115.91c0 13.81-11.19 25-25 25h-41.56z" fill="#2C5CCB" p-id="7342"></path><path d="M366.98 665.32c-13.81 0-25-11.19-25-25v-88.04c0-13.81 11.19-25 25-25s25 11.19 25 25v88.04c0 13.81-11.19 25-25 25zM462.98 665.32c-13.81 0-25-11.19-25-25v-88.04c0-13.81 11.19-25 25-25s25 11.19 25 25v88.04c0 13.81-11.19 25-25 25zM558.98 665.32c-13.81 0-25-11.19-25-25v-88.04c0-13.81 11.19-25 25-25s25 11.19 25 25v88.04c0 13.81-11.19 25-25 25zM654.98 665.32c-13.81 0-25-11.19-25-25v-88.04c0-13.81 11.19-25 25-25s25 11.19 25 25v88.04c0 13.81-11.19 25-25 25z" fill="#2C5CCB" p-id="7343"></path></svg>